<svg xmlns="http://www.w3.org/2000/svg" viewBox="0 0 601.8 723.82">
  <g fill="#fff">
    <polygon points="601.8 565.99 601.8 723.81 570.91 709.13 570.91 551.31 601.8 565.99"/>
    <path d="M572.5,293.92l-27.24,12.94c-20.93-54.02-52.46-102.7-86.26-143.4l14.38-30.25c38.61,45.08,75,99.66,99.12,160.71Z"/>
    <path d="M570.91,437.86v113.45l-30.88-14.68v-101.98c0-40.17-8.35-78.78-21.98-114.85l27.22-12.94c15.86,40.96,25.64,85,25.64,131Z"/>
    <polygon points="540.03 536.63 540.03 694.45 509.14 679.77 509.14 521.95 540.03 536.63"/>
    <path d="M518.05,319.8l-27.22,12.94c-14.6-39.98-36.53-76.71-60.7-108.53l14.46-30.43c28.99,36.29,55.7,79.01,73.46,126.02Z"/>
    <path d="M509.14,431.44v90.51l-30.89-14.66v-79.05c0-28.53-5.5-56.26-14.65-82.55l27.24-12.94c11.37,31.18,18.31,64.34,18.31,98.7Z"/>
    <polygon points="478.24 507.28 478.24 665.09 447.36 650.42 447.36 492.6 478.24 507.28"/>
    <path d="M473.39,133.21l-14.38,30.25c-63.02-75.89-133.83-124.15-158.11-128.01V0c23.67,0,101.79,50.65,172.49,133.21Z"/>
    <path d="M463.59,345.67l-27.24,12.94c-8.39-25.89-20.91-50.51-35.41-73l14.65-30.85c19.34,27.24,36.53,57.95,48,90.91Z"/>
    <path d="M444.58,193.78l-14.46,30.43c-47.49-62.52-103.54-106.05-129.23-117.89v-35.43c24.95,7.8,88.4,53.67,143.68,122.89Z"/>
    <path d="M415.59,254.77l-14.65,30.85c-31.58-48.99-72.47-87.97-100.04-108.4v-35.45c26.53,16.01,75.09,57.22,114.69,113Z"/>
    <path d="M300.9,141.77v35.45c-27.57,20.43-68.46,59.39-100.04,108.38l-14.65-30.83c39.6-55.78,88.16-96.99,114.69-113Z"/>
    <path d="M300.9,70.89v35.43c-25.69,11.84-81.74,55.37-129.23,117.89l-14.46-30.43c55.29-69.21,118.75-115.09,143.68-122.89Z"/>
    <path d="M300.9,0v35.45c-24.28,3.87-95.09,52.12-158.11,128.01l-14.38-30.25C199.11,50.65,277.23,0,300.9,0Z"/>
    <path d="M186.21,254.77l14.65,30.83c-14.5,22.51-27.04,47.11-35.41,73.02l-27.24-12.94c11.45-32.95,28.66-63.67,48-90.91Z"/>
    <path d="M157.21,193.78l14.46,30.43c-24.17,31.8-46.1,68.54-60.7,108.53l-27.22-12.94c17.75-47.01,44.47-89.73,73.46-126.02Z"/>
    <polygon points="154.44 492.6 154.44 650.42 123.54 665.1 123.54 507.28 154.44 492.6"/>
    <path d="M128.41,133.21l14.38,30.25c-33.8,40.7-65.33,89.37-86.26,143.4l-27.24-12.95c24.12-61.04,60.51-115.62,99.12-160.7Z"/>
    <path d="M110.97,332.74l27.24,12.94c-9.15,26.29-14.66,54.02-14.66,82.55v79.05l-30.88,14.68v-90.52c0-34.36,6.92-67.52,18.31-98.7Z"/>
    <polygon points="92.66 521.96 92.66 679.78 61.77 694.46 61.77 536.64 92.66 521.96"/>
    <path d="M56.53,306.86l27.22,12.94c-13.63,36.07-21.98,74.68-21.98,114.85v101.99l-30.89,14.68v-113.46c0-46,9.79-90.04,25.65-131Z"/>
    <polygon points="30.88 551.32 30.88 709.14 0 723.82 0 566 30.88 551.32"/>
  </g>
</svg>
